<svg width="138" height="36" viewBox="0 0 138 36" fill="none" xmlns="http://www.w3.org/2000/svg">
<path d="M18.3873 2.60001C18.3873 3.17601 18.1953 3.70401 17.8113 4.18401C17.4593 4.66401 16.9793 4.90401 16.3713 4.90401C15.7953 4.90401 15.2993 4.76001 14.8833 4.47201C14.4993 4.15201 14.1313 3.8 13.7793 3.416C13.4593 3.00001 13.1393 2.60001 12.8193 2.21601C12.5313 1.83201 12.1953 1.57601 11.8113 1.44801C11.6193 1.44801 11.3473 1.49601 10.9953 1.59201C10.6433 1.68801 10.2753 1.89601 9.89131 2.21601C9.53931 2.50401 9.21932 2.95201 8.93132 3.56001C8.67532 4.13601 8.51531 4.92001 8.45131 5.91201C8.38731 7.19201 8.33931 8.29601 8.30731 9.22401C8.30731 10.12 8.30731 11.144 8.30731 12.296H13.9713L13.3473 14.408H8.25931V33.128C8.32331 33.416 8.48332 33.64 8.73932 33.8C8.99532 33.96 9.31531 34.088 9.69931 34.184C10.0833 34.28 10.4993 34.344 10.9473 34.376C11.4273 34.408 11.9073 34.456 12.3873 34.52V35H0.195312V34.52C0.547313 34.488 0.947309 34.44 1.39531 34.376C1.87531 34.28 2.32332 34.184 2.73932 34.088C3.18732 33.96 3.55531 33.816 3.84331 33.656C4.13131 33.464 4.27531 33.24 4.27531 32.984V14.408H0.819313L1.34731 12.296H4.32332C4.32332 10.952 4.35531 9.64001 4.41931 8.36001C4.51531 7.04801 4.73931 6.04001 5.09131 5.33601C5.44331 4.60001 5.93932 3.92801 6.57932 3.32001C7.21932 2.68001 7.93932 2.13601 8.73932 1.68801C9.57132 1.20801 10.4673 0.840006 11.4273 0.584007C12.4193 0.296007 13.4273 0.152008 14.4513 0.152008C14.9313 0.152008 15.3953 0.200006 15.8433 0.296005C16.3233 0.392006 16.7393 0.536005 17.0913 0.728004C17.4753 0.920006 17.7793 1.17601 18.0033 1.49601C18.2593 1.78401 18.3873 2.15201 18.3873 2.60001Z" fill="black"/>
<path d="M30.7488 14.36C30.7488 15.064 30.5408 15.656 30.1248 16.136C29.7088 16.584 29.2288 16.808 28.6848 16.808C28.1728 16.808 27.7568 16.728 27.4368 16.568C27.1488 16.376 26.8928 16.168 26.6688 15.944C26.4448 15.72 26.2048 15.528 25.9488 15.368C25.6928 15.176 25.3408 15.08 24.8928 15.08C24.5088 15.08 24.1248 15.224 23.7408 15.512C23.3888 15.768 23.0528 16.104 22.7328 16.52C22.4128 16.936 22.1248 17.416 21.8688 17.96C21.6128 18.472 21.3888 18.968 21.1968 19.448V33.272C21.2928 33.56 21.5008 33.784 21.8208 33.944C22.1408 34.104 22.4928 34.216 22.8768 34.28C23.2928 34.344 23.7088 34.392 24.1248 34.424C24.5728 34.424 24.9568 34.456 25.2768 34.52V35H14.5248V34.52C15.2608 34.456 15.8848 34.312 16.3968 34.088C16.9408 33.864 17.2128 33.496 17.2128 32.984V16.76C17.2128 16.504 17.1808 16.312 17.1168 16.184C17.0848 16.056 16.9568 15.912 16.7328 15.752C16.4448 15.592 16.1088 15.4 15.7248 15.176C15.3408 14.92 14.9568 14.712 14.5728 14.552V14.264L20.8608 11.816H21.1488L21.0528 18.488H21.1488C21.3088 18.104 21.5648 17.544 21.9168 16.808C22.2688 16.072 22.7168 15.336 23.2608 14.6C23.8048 13.832 24.4608 13.176 25.2288 12.632C25.9968 12.088 26.8768 11.816 27.8688 11.816C28.6688 11.816 29.3408 12.056 29.8848 12.536C30.4608 13.016 30.7488 13.624 30.7488 14.36Z" fill="black"/>
<path d="M51.0731 27.704C50.9451 28.408 50.6571 29.208 50.2091 30.104C49.7611 30.968 49.1531 31.768 48.3851 32.504C47.6171 33.24 46.6891 33.848 45.6011 34.328C44.5451 34.808 43.3611 35.048 42.0491 35.048C40.4171 35.048 38.9291 34.744 37.5851 34.136C36.2411 33.528 35.0891 32.68 34.1291 31.592C33.2011 30.472 32.4811 29.176 31.9691 27.704C31.4571 26.2 31.2011 24.616 31.2011 22.952C31.2011 21.608 31.4411 20.28 31.9211 18.968C32.4011 17.624 33.0731 16.424 33.9371 15.368C34.8331 14.312 35.9051 13.464 37.1531 12.824C38.4331 12.152 39.8411 11.816 41.3771 11.816C42.6251 11.816 43.7931 11.976 44.8811 12.296C46.0011 12.616 46.9611 13.112 47.7611 13.784C48.5931 14.424 49.2651 15.24 49.7771 16.232C50.2891 17.224 50.5931 18.392 50.6891 19.736H35.2811C35.2811 19.992 35.2651 20.296 35.2331 20.648C35.2011 20.968 35.1851 21.304 35.1851 21.656C35.1851 23 35.3771 24.296 35.7611 25.544C36.1451 26.76 36.7051 27.848 37.4411 28.808C38.1771 29.736 39.1051 30.472 40.2251 31.016C41.3451 31.56 42.6411 31.832 44.1131 31.832C45.7131 31.832 47.1051 31.432 48.2891 30.632C49.5051 29.8 50.3051 28.792 50.6891 27.608L51.0731 27.704ZM45.9371 16.952C45.9371 15.768 45.5211 14.76 44.6891 13.928C43.8891 13.064 42.8011 12.632 41.4251 12.632C40.5291 12.632 39.7131 12.904 38.9771 13.448C38.2731 13.96 37.6491 14.568 37.1051 15.272C36.5931 15.976 36.1931 16.696 35.9051 17.432C35.6171 18.136 35.4411 18.68 35.3771 19.064C36.1131 19.064 36.7691 19.064 37.3451 19.064C37.9211 19.064 38.4811 19.064 39.0251 19.064C39.6011 19.032 40.1931 19.016 40.8011 19.016C41.4091 18.984 42.0811 18.968 42.8171 18.968C43.2971 18.968 43.7451 18.952 44.1611 18.92C44.5771 18.888 44.9451 18.808 45.2651 18.68C45.4891 18.424 45.6491 18.184 45.7451 17.96C45.8731 17.736 45.9371 17.4 45.9371 16.952Z" fill="black"/>
<path d="M75.7244 35H65.9324V34.472C66.7964 34.408 67.4844 34.312 67.9964 34.184C68.5084 34.024 68.7644 33.688 68.7644 33.176V21.08C68.7644 19.224 68.4124 17.736 67.7084 16.616C67.0044 15.464 65.8204 14.888 64.1564 14.888C63.1004 14.888 62.2204 15.112 61.5164 15.56C60.8124 16.008 60.0284 16.664 59.1644 17.528V33.272C59.2284 33.592 59.3404 33.832 59.5004 33.992C59.6604 34.12 59.8524 34.216 60.0764 34.28C60.3004 34.344 60.5564 34.392 60.8444 34.424C61.1324 34.424 61.4364 34.456 61.7564 34.52V35H52.4924V34.52C53.2284 34.456 53.8524 34.312 54.3644 34.088C54.9084 33.864 55.1804 33.496 55.1804 32.984V16.472C55.1804 16.216 55.1484 16.024 55.0844 15.896C55.0524 15.768 54.9244 15.624 54.7004 15.464C54.4124 15.304 54.0764 15.128 53.6924 14.936C53.3084 14.712 52.9244 14.52 52.5404 14.36V14.072L58.8284 11.816H59.1164V17L59.2124 17.048C59.5644 16.504 59.9964 15.928 60.5084 15.32C61.0524 14.68 61.6604 14.104 62.3324 13.592C63.0044 13.08 63.7404 12.664 64.5404 12.344C65.3404 11.992 66.1724 11.816 67.0364 11.816C68.8924 11.816 70.3164 12.504 71.3084 13.88C72.3004 15.256 72.7964 17.032 72.7964 19.208V33.32C72.7964 33.544 72.8924 33.736 73.0844 33.896C73.3084 34.056 73.5644 34.184 73.8524 34.28C74.1404 34.344 74.4444 34.408 74.7644 34.472C75.1164 34.504 75.4364 34.536 75.7244 34.568V35Z" fill="black"/>
<path d="M113.716 35H104.26V34.472C105.124 34.408 105.78 34.312 106.228 34.184C106.676 34.024 106.9 33.688 106.9 33.176V20.936C106.9 19.08 106.564 17.608 105.892 16.52C105.252 15.4 104.1 14.84 102.436 14.84C101.38 14.84 100.5 15.128 99.7957 15.704C99.0917 16.248 98.3557 16.952 97.5877 17.816V33.32C97.5877 33.544 97.6677 33.736 97.8277 33.896C97.9877 34.056 98.1957 34.184 98.4517 34.28C98.7077 34.344 98.9797 34.408 99.2677 34.472C99.5877 34.504 99.8917 34.536 100.18 34.568V35H90.7237V34.472C91.5877 34.408 92.2757 34.312 92.7877 34.184C93.2997 34.024 93.5557 33.688 93.5557 33.176V20.888C93.5557 19 93.2197 17.528 92.5477 16.472C91.9077 15.384 90.7557 14.84 89.0917 14.84C88.0357 14.84 87.1717 15.064 86.4997 15.512C85.8277 15.96 85.0757 16.632 84.2437 17.528V33.272C84.3077 33.592 84.4197 33.832 84.5797 33.992C84.7397 34.12 84.9317 34.216 85.1557 34.28C85.4117 34.344 85.6837 34.392 85.9717 34.424C86.2597 34.424 86.5637 34.456 86.8837 34.52V35H77.5717V34.52C78.3077 34.456 78.9317 34.312 79.4437 34.088C79.9877 33.864 80.2597 33.496 80.2597 32.984V16.568C80.2597 16.312 80.2277 16.12 80.1637 15.992C80.1317 15.864 80.0037 15.72 79.7797 15.56C79.4917 15.4 79.1557 15.224 78.7717 15.032C78.3877 14.808 78.0037 14.616 77.6197 14.456V14.072L83.9077 11.816H84.1957V17L84.2917 17.048C84.6117 16.472 85.0277 15.88 85.5397 15.272C86.0517 14.632 86.6437 14.072 87.3157 13.592C87.9877 13.08 88.7077 12.664 89.4757 12.344C90.2757 11.992 91.1077 11.816 91.9717 11.816C93.5077 11.816 94.7397 12.328 95.6677 13.352C96.6277 14.344 97.2197 15.688 97.4437 17.384H97.5877C97.8757 16.808 98.2757 16.2 98.7877 15.56C99.2997 14.888 99.8917 14.28 100.564 13.736C101.236 13.16 101.972 12.696 102.772 12.344C103.604 11.992 104.452 11.816 105.316 11.816C107.172 11.816 108.564 12.488 109.492 13.832C110.452 15.176 110.932 16.904 110.932 19.016V33.32C110.932 33.544 111.028 33.736 111.22 33.896C111.412 34.056 111.636 34.184 111.892 34.28C112.18 34.344 112.484 34.408 112.804 34.472C113.124 34.504 113.428 34.536 113.716 34.568V35Z" fill="black"/>
<path d="M137.905 23.24C137.905 24.872 137.601 26.424 136.993 27.896C136.385 29.336 135.569 30.6 134.545 31.688C133.521 32.776 132.321 33.624 130.945 34.232C129.601 34.84 128.177 35.144 126.673 35.144C125.425 35.144 124.129 34.92 122.785 34.472C121.441 34.024 120.193 33.32 119.041 32.36C117.921 31.368 116.993 30.12 116.257 28.616C115.553 27.08 115.201 25.288 115.201 23.24C115.201 21.768 115.473 20.344 116.017 18.968C116.593 17.592 117.377 16.376 118.369 15.32C119.393 14.264 120.609 13.416 122.017 12.776C123.457 12.136 125.041 11.816 126.769 11.816C128.049 11.816 129.345 12.056 130.657 12.536C131.969 13.016 133.153 13.736 134.209 14.696C135.297 15.624 136.177 16.808 136.849 18.248C137.553 19.656 137.905 21.32 137.905 23.24ZM133.441 23.192C133.441 22.104 133.313 20.936 133.057 19.688C132.833 18.44 132.449 17.288 131.905 16.232C131.361 15.176 130.641 14.312 129.745 13.64C128.849 12.936 127.745 12.584 126.433 12.584C125.377 12.584 124.433 12.904 123.601 13.544C122.769 14.184 122.049 15.032 121.441 16.088C120.865 17.112 120.417 18.28 120.097 19.592C119.809 20.872 119.665 22.184 119.665 23.528C119.665 25 119.793 26.392 120.049 27.704C120.305 29.016 120.721 30.184 121.297 31.208C121.873 32.2 122.609 33 123.505 33.608C124.401 34.184 125.473 34.472 126.721 34.472C127.969 34.472 129.009 34.104 129.841 33.368C130.705 32.6 131.393 31.656 131.905 30.536C132.449 29.384 132.833 28.152 133.057 26.84C133.313 25.528 133.441 24.312 133.441 23.192Z" fill="black"/>
</svg>
